ffmpeg started on 2025-06-06 at 16:05:12
Report written to "D:\Convert\FFMetrics\reports\psnr_report-6.txt"
Log level: 32
Command line:
ffmpeg -hide_banner -nostdin -i "G:\\\xc0\xed\xe8\xec\xe5\\\xce\xed\xe3\xee\xe8\xed\xe3\xe8\\!_36_\xce\xf1\xe5\xed\xfc_2024\\DreamCast\\\xcf\xe5\xf0\xe5\xf0\xee\xe6\xe4\xe5\xed\xe8\xe5 \xe2 \xe0\xf0\xe8\xf1\xf2\xee\xea\xf0\xe0\xf2\xe0 \xf1\xee \xf1\xef\xee\xf1\xee\xe1\xed\xee\xf1\xf2\xfc\xfe \xe0\xed\xe0\xeb\xe8\xe7\xe0\\\xd2\xc2-1\\[DC] Tensei Kizoku - Kantei Skill de Nariagaru - 12_Telegram_HEVC.mkv" -i "G:\\\xc0\xed\xe8\xec\xe5\\\xce\xed\xe3\xee\xe8\xed\xe3\xe8\\!_36_\xce\xf1\xe5\xed\xfc_2024\\DreamCast\\\xcf\xe5\xf0\xe5\xf0\xee\xe6\xe4\xe5\xed\xe8\xe5 \xe2 \xe0\xf0\xe8\xf1\xf2\xee\xea\xf0\xe0\xf2\xe0 \xf1\xee \xf1\xef\xee\xf1\xee\xe1\xed\xee\xf1\xf2\xfc\xfe \xe0\xed\xe0\xeb\xe8\xe7\xe0\\\xd2\xc2-1\\[DC] Tensei Kizoku - Kantei Skill de Nariagaru - 12_Telegram.mp4" -lavfi "[0:v]settb=AVTB,setpts=PTS-STARTPTS,format=pix_fmts=yuv420p10,fps=24000/1001,scale=1920:1080:flags=bicubic[main];[1:v]settb=AVTB,setpts=PTS-STARTPTS,format=pix_fmts=yuv420p,fps=24000/1001,scale=1920:1080:flags=bicubic[ref];[main][ref]psnr=eof_action=endall:stats_file='D\\:/Convert/FFMetrics/logs/psnr_logfile-6.txt'" -f null -
Input #0, matroska,webm, from 'G:\Аниме\Онгоинги\!_36_Осень_2024\DreamCast\Перерождение в аристократа со способностью анализа\ТВ-1\[DC] Tensei Kizoku - Kantei Skill de Nariagaru - 12_Telegram_HEVC.mkv':
  Metadata:
    COMPATIBLE_BRANDS: isomiso2avc1mp41
    MAJOR_BRAND     : isom
    MINOR_VERSION   : 512
    ENCODER         : Lavf61.7.100
  Duration: 00:23:31.71, start: -0.021000, bitrate: 1840 kb/s
  Stream #0:0: Video: hevc (Main 10), yuv420p10le(tv, bt709, progressive), 1920x1080 [SAR 1:1 DAR 16:9], 23.98 fps, 23.98 tbr, 1k tbn (default)
      Metadata:
        HANDLER_NAME    : VideoHandler
        VENDOR_ID       : [0][0][0][0]
        ENCODER         : Lavc61.19.100 libx265
        BPS             : 1642647
        DURATION        : 00:23:31.534708333
        NUMBER_OF_FRAMES: 33843
        NUMBER_OF_BYTES : 289831584
        _STATISTICS_WRITING_APP: mkvpropedit v66.0.0 ('Josie') 64-bit
        _STATISTICS_WRITING_DATE_UTC: 2025-06-02 08:50:20
        _STATISTICS_TAGS: BPS DURATION NUMBER_OF_FRAMES NUMBER_OF_BYTES
  Stream #0:1: Audio: aac (LC), 48000 Hz, stereo, fltp (default)
      Metadata:
        HANDLER_NAME    : SoundHandler
        VENDOR_ID       : [0][0][0][0]
        ENCODER         : Lavc61.19.100 aac
        BPS             : 193580
        DURATION        : 00:23:31.712000000
        NUMBER_OF_FRAMES: 66175
        NUMBER_OF_BYTES : 34160075
        _STATISTICS_WRITING_APP: mkvpropedit v66.0.0 ('Josie') 64-bit
        _STATISTICS_WRITING_DATE_UTC: 2025-06-02 08:50:20
        _STATISTICS_TAGS: BPS DURATION NUMBER_OF_FRAMES NUMBER_OF_BYTES
Input #1, mov,mp4,m4a,3gp,3g2,mj2, from 'G:\Аниме\Онгоинги\!_36_Осень_2024\DreamCast\Перерождение в аристократа со способностью анализа\ТВ-1\[DC] Tensei Kizoku - Kantei Skill de Nariagaru - 12_Telegram.mp4':
  Metadata:
    major_brand     : isom
    minor_version   : 512
    compatible_brands: isomiso2avc1mp41
    encoder         : Lavf60.16.100
  Duration: 00:23:31.65, start: 0.000000, bitrate: 3843 kb/s
  Stream #1:0[0x1](und): Video: h264 (High) (avc1 / 0x31637661), yuv420p(tv, bt709, progressive), 1920x1080 [SAR 1:1 DAR 16:9], 3695 kb/s, 23.98 fps, 23.98 tbr, 24k tbn (default)
      Metadata:
        handler_name    : VideoHandler
        vendor_id       : [0][0][0][0]
        encoder         : Lavc60.31.102 h264_qsv
  Stream #1:1[0x2](und): Audio: aac (HE-AACv2) (mp4a / 0x6134706D), 48000 Hz, stereo, fltp, 144 kb/s (default)
      Metadata:
        handler_name    : SoundHandler
        vendor_id       : [0][0][0][0]
Stream mapping:
  Stream #0:0 (hevc) -> settb:default
  Stream #1:0 (h264) -> settb:default
  psnr:default -> Stream #0:0 (wrapped_avframe)
  Stream #0:1 -> #0:1 (aac (native) -> pcm_s16le (native))
Output #0, null, to 'pipe:':
  Metadata:
    COMPATIBLE_BRANDS: isomiso2avc1mp41
    MAJOR_BRAND     : isom
    MINOR_VERSION   : 512
    encoder         : Lavf61.7.100
  Stream #0:0: Video: wrapped_avframe, yuv420p10le(tv, bt709, progressive), 1920x1080 [SAR 1:1 DAR 16:9], q=2-31, 200 kb/s, 23.98 fps, 23.98 tbn
      Metadata:
        encoder         : Lavc61.19.100 wrapped_avframe
  Stream #0:1: Audio: pcm_s16le, 48000 Hz, stereo, s16, 1536 kb/s (default)
      Metadata:
        HANDLER_NAME    : SoundHandler
        VENDOR_ID       : [0][0][0][0]
        _STATISTICS_TAGS: BPS DURATION NUMBER_OF_FRAMES NUMBER_OF_BYTES
        BPS             : 193580
        DURATION        : 00:23:31.712000000
        NUMBER_OF_FRAMES: 66175
        NUMBER_OF_BYTES : 34160075
        _STATISTICS_WRITING_APP: mkvpropedit v66.0.0 ('Josie') 64-bit
        _STATISTICS_WRITING_DATE_UTC: 2025-06-02 08:50:20
        encoder         : Lavc61.19.100 pcm_s16le
frame=  157 fps=0.0 q=-0.0 size=N/A time=00:00:06.54 bitrate=N/A speed=12.4x    frame=  272 fps=261 q=-0.0 size=N/A time=00:00:11.34 bitrate=N/A speed=10.9x    frame=  395 fps=253 q=-0.0 size=N/A time=00:00:16.47 bitrate=N/A speed=10.6x    frame=  511 fps=247 q=-0.0 size=N/A time=00:00:21.31 bitrate=N/A speed=10.3x    frame=  635 fps=245 q=-0.0 size=N/A time=00:00:26.48 bitrate=N/A speed=10.2x    frame=  841 fps=272 q=-0.0 size=N/A time=00:00:35.07 bitrate=N/A speed=11.3x    frame= 1014 fps=280 q=-0.0 size=N/A time=00:00:42.29 bitrate=N/A speed=11.7x    frame= 1194 fps=289 q=-0.0 size=N/A time=00:00:49.79 bitrate=N/A speed=  12x    frame= 1424 fps=307 q=-0.0 size=N/A time=00:00:59.39 bitrate=N/A speed=12.8x    frame= 1561 fps=302 q=-0.0 size=N/A time=00:01:05.10 bitrate=N/A speed=12.6x    frame= 1718 fps=303 q=-0.0 size=N/A time=00:01:11.65 bitrate=N/A speed=12.6x    frame= 1899 fps=306 q=-0.0 size=N/A time=00:01:19.20 bitrate=N/A speed=12.8x    frame= 2094 fps=312 q=-0.0 size=N/A time=00:01:27.33 bitrate=N/A speed=  13x    frame= 2247 fps=311 q=-0.0 size=N/A time=00:01:33.71 bitrate=N/A speed=  13x    frame= 2408 fps=311 q=-0.0 size=N/A time=00:01:40.43 bitrate=N/A speed=  13x    frame= 2624 fps=318 q=-0.0 size=N/A time=00:01:49.44 bitrate=N/A speed=13.3x    frame= 2787 fps=318 q=-0.0 size=N/A time=00:01:56.24 bitrate=N/A speed=13.3x    frame= 2968 fps=320 q=-0.0 size=N/A time=00:02:03.79 bitrate=N/A speed=13.3x    frame= 3163 fps=323 q=-0.0 size=N/A time=00:02:11.92 bitrate=N/A speed=13.5x    frame= 3381 fps=328 q=-0.0 size=N/A time=00:02:21.01 bitrate=N/A speed=13.7x    frame= 3607 fps=333 q=-0.0 size=N/A time=00:02:30.44 bitrate=N/A speed=13.9x    frame= 3815 fps=336 q=-0.0 size=N/A time=00:02:39.11 bitrate=N/A speed=  14x    frame= 3974 fps=335 q=-0.0 size=N/A time=00:02:45.74 bitrate=N/A speed=  14x    frame= 4137 fps=334 q=-0.0 size=N/A time=00:02:52.54 bitrate=N/A speed=13.9x    frame= 4313 fps=334 q=-0.0 size=N/A time=00:02:59.88 bitrate=N/A speed=13.9x    frame= 4470 fps=333 q=-0.0 size=N/A time=00:03:06.43 bitrate=N/A speed=13.9x    frame= 4655 fps=334 q=-0.0 size=N/A time=00:03:14.15 bitrate=N/A speed=13.9x    frame= 4829 fps=334 q=-0.0 size=N/A time=00:03:21.40 bitrate=N/A speed=13.9x    frame= 5029 fps=336 q=-0.0 size=N/A time=00:03:29.75 bitrate=N/A speed=  14x    frame= 5204 fps=336 q=-0.0 size=N/A time=00:03:37.05 bitrate=N/A speed=  14x    frame= 5394 fps=337 q=-0.0 size=N/A time=00:03:44.97 bitrate=N/A speed=14.1x    frame= 5617 fps=340 q=-0.0 size=N/A time=00:03:54.27 bitrate=N/A speed=14.2x    frame= 5793 fps=340 q=-0.0 size=N/A time=00:04:01.61 bitrate=N/A speed=14.2x    frame= 5937 fps=338 q=-0.0 size=N/A time=00:04:07.62 bitrate=N/A speed=14.1x    frame= 6112 fps=339 q=-0.0 size=N/A time=00:04:14.92 bitrate=N/A speed=14.1x    frame= 6342 fps=341 q=-0.0 size=N/A time=00:04:24.51 bitrate=N/A speed=14.2x    frame= 6583 fps=345 q=-0.0 size=N/A time=00:04:34.56 bitrate=N/A speed=14.4x    frame= 6806 fps=347 q=-0.0 size=N/A time=00:04:43.86 bitrate=N/A speed=14.5x    frame= 6974 fps=347 q=-0.0 size=N/A time=00:04:50.87 bitrate=N/A speed=14.5x    frame= 7187 fps=348 q=-0.0 size=N/A time=00:04:59.75 bitrate=N/A speed=14.5x    frame= 7399 fps=350 q=-0.0 size=N/A time=00:05:08.59 bitrate=N/A speed=14.6x    frame= 7636 fps=352 q=-0.0 size=N/A time=00:05:18.48 bitrate=N/A speed=14.7x    frame= 7874 fps=355 q=-0.0 size=N/A time=00:05:28.41 bitrate=N/A speed=14.8x    frame= 8091 fps=356 q=-0.0 size=N/A time=00:05:37.46 bitrate=N/A speed=14.9x    frame= 8344 fps=360 q=-0.0 size=N/A time=00:05:48.01 bitrate=N/A speed=  15x    frame= 8592 fps=362 q=-0.0 size=N/A time=00:05:58.35 bitrate=N/A speed=15.1x    frame= 8823 fps=364 q=-0.0 size=N/A time=00:06:07.99 bitrate=N/A speed=15.2x    frame= 9047 fps=365 q=-0.0 size=N/A time=00:06:17.33 bitrate=N/A speed=15.2x    frame= 9250 fps=366 q=-0.0 size=N/A time=00:06:25.80 bitrate=N/A speed=15.3x    frame= 9512 fps=369 q=-0.0 size=N/A time=00:06:36.72 bitrate=N/A speed=15.4x    frame= 9719 fps=369 q=-0.0 size=N/A time=00:06:45.36 bitrate=N/A speed=15.4x    frame= 9909 fps=370 q=-0.0 size=N/A time=00:06:53.28 bitrate=N/A speed=15.4x    frame=10117 fps=370 q=-0.0 size=N/A time=00:07:01.96 bitrate=N/A speed=15.4x    frame=10291 fps=369 q=-0.0 size=N/A time=00:07:09.22 bitrate=N/A speed=15.4x    frame=10482 fps=370 q=-0.0 size=N/A time=00:07:17.18 bitrate=N/A speed=15.4x    frame=10679 fps=370 q=-0.0 size=N/A time=00:07:25.40 bitrate=N/A speed=15.4x    frame=10839 fps=369 q=-0.0 size=N/A time=00:07:32.07 bitrate=N/A speed=15.4x    frame=11024 fps=369 q=-0.0 size=N/A time=00:07:39.79 bitrate=N/A speed=15.4x    frame=11233 fps=369 q=-0.0 size=N/A time=00:07:48.50 bitrate=N/A speed=15.4x    frame=11410 fps=369 q=-0.0 size=N/A time=00:07:55.89 bitrate=N/A speed=15.4x    frame=11614 fps=369 q=-0.0 size=N/A time=00:08:04.40 bitrate=N/A speed=15.4x    frame=11827 fps=370 q=-0.0 size=N/A time=00:08:13.28 bitrate=N/A speed=15.4x    frame=12054 fps=371 q=-0.0 size=N/A time=00:08:22.75 bitrate=N/A speed=15.5x    frame=12237 fps=371 q=-0.0 size=N/A time=00:08:30.38 bitrate=N/A speed=15.5x    frame=12382 fps=369 q=-0.0 size=N/A time=00:08:36.43 bitrate=N/A speed=15.4x    frame=12562 fps=369 q=-0.0 size=N/A time=00:08:43.94 bitrate=N/A speed=15.4x    frame=12739 fps=369 q=-0.0 size=N/A time=00:08:51.32 bitrate=N/A speed=15.4x    frame=12970 fps=370 q=-0.0 size=N/A time=00:09:00.95 bitrate=N/A speed=15.4x    frame=13214 fps=371 q=-0.0 size=N/A time=00:09:11.13 bitrate=N/A speed=15.5x    frame=13406 fps=371 q=-0.0 size=N/A time=00:09:19.14 bitrate=N/A speed=15.5x    frame=13538 fps=370 q=-0.0 size=N/A time=00:09:24.64 bitrate=N/A speed=15.4x    frame=13697 fps=369 q=-0.0 size=N/A time=00:09:31.27 bitrate=N/A speed=15.4x    frame=13842 fps=368 q=-0.0 size=N/A time=00:09:37.32 bitrate=N/A speed=15.3x    frame=14019 fps=367 q=-0.0 size=N/A time=00:09:44.70 bitrate=N/A speed=15.3x    frame=14190 fps=367 q=-0.0 size=N/A time=00:09:51.84 bitrate=N/A speed=15.3x    frame=14392 fps=367 q=-0.0 size=N/A time=00:10:00.26 bitrate=N/A speed=15.3x    frame=14581 fps=367 q=-0.0 size=N/A time=00:10:08.14 bitrate=N/A speed=15.3x    frame=14814 fps=368 q=-0.0 size=N/A time=00:10:17.86 bitrate=N/A speed=15.4x    frame=15026 fps=369 q=-0.0 size=N/A time=00:10:26.70 bitrate=N/A speed=15.4x    frame=15283 fps=370 q=-0.0 size=N/A time=00:10:37.42 bitrate=N/A speed=15.4x    frame=15522 fps=372 q=-0.0 size=N/A time=00:10:47.39 bitrate=N/A speed=15.5x    frame=15776 fps=373 q=-0.0 size=N/A time=00:10:57.99 bitrate=N/A speed=15.6x    frame=16007 fps=374 q=-0.0 size=N/A time=00:11:07.62 bitrate=N/A speed=15.6x    frame=16272 fps=376 q=-0.0 size=N/A time=00:11:18.67 bitrate=N/A speed=15.7x    frame=16542 fps=377 q=-0.0 size=N/A time=00:11:29.93 bitrate=N/A speed=15.7x    frame=16803 fps=379 q=-0.0 size=N/A time=00:11:40.82 bitrate=N/A speed=15.8x    frame=17064 fps=380 q=-0.0 size=N/A time=00:11:51.71 bitrate=N/A speed=15.9x    frame=17333 fps=382 q=-0.0 size=N/A time=00:12:02.93 bitrate=N/A speed=15.9x    frame=17579 fps=383 q=-0.0 size=N/A time=00:12:13.19 bitrate=N/A speed=  16x    frame=17815 fps=384 q=-0.0 size=N/A time=00:12:23.03 bitrate=N/A speed=  16x    frame=18077 fps=385 q=-0.0 size=N/A time=00:12:33.96 bitrate=N/A speed=16.1x    frame=18336 fps=386 q=-0.0 size=N/A time=00:12:44.76 bitrate=N/A speed=16.1x    frame=18597 fps=388 q=-0.0 size=N/A time=00:12:55.64 bitrate=N/A speed=16.2x    frame=18853 fps=389 q=-0.0 size=N/A time=00:13:06.32 bitrate=N/A speed=16.2x    frame=19099 fps=390 q=-0.0 size=N/A time=00:13:16.58 bitrate=N/A speed=16.3x    frame=19347 fps=391 q=-0.0 size=N/A time=00:13:26.93 bitrate=N/A speed=16.3x    frame=19603 fps=392 q=-0.0 size=N/A time=00:13:37.60 bitrate=N/A speed=16.3x    frame=19873 fps=393 q=-0.0 size=N/A time=00:13:48.86 bitrate=N/A speed=16.4x    frame=20155 fps=395 q=-0.0 size=N/A time=00:14:00.63 bitrate=N/A speed=16.5x    frame=20415 fps=396 q=-0.0 size=N/A time=00:14:11.47 bitrate=N/A speed=16.5x    frame=20674 fps=397 q=-0.0 size=N/A time=00:14:22.27 bitrate=N/A speed=16.6x    frame=20919 fps=398 q=-0.0 size=N/A time=00:14:32.49 bitrate=N/A speed=16.6x    frame=21176 fps=399 q=-0.0 size=N/A time=00:14:43.21 bitrate=N/A speed=16.6x    frame=21437 fps=400 q=-0.0 size=N/A time=00:14:54.10 bitrate=N/A speed=16.7x    frame=21692 fps=401 q=-0.0 size=N/A time=00:15:04.73 bitrate=N/A speed=16.7x    frame=21938 fps=401 q=-0.0 size=N/A time=00:15:14.99 bitrate=N/A speed=16.7x    frame=22176 fps=402 q=-0.0 size=N/A time=00:15:24.92 bitrate=N/A speed=16.8x    frame=22423 fps=403 q=-0.0 size=N/A time=00:15:35.22 bitrate=N/A speed=16.8x    frame=22680 fps=403 q=-0.0 size=N/A time=00:15:45.94 bitrate=N/A speed=16.8x    frame=22949 fps=404 q=-0.0 size=N/A time=00:15:57.16 bitrate=N/A speed=16.9x    frame=23179 fps=405 q=-0.0 size=N/A time=00:16:06.75 bitrate=N/A speed=16.9x    frame=23443 fps=406 q=-0.0 size=N/A time=00:16:17.76 bitrate=N/A speed=16.9x    frame=23692 fps=406 q=-0.0 size=N/A time=00:16:28.15 bitrate=N/A speed=  17x    frame=23943 fps=407 q=-0.0 size=N/A time=00:16:38.62 bitrate=N/A speed=  17x    frame=24210 fps=408 q=-0.0 size=N/A time=00:16:49.75 bitrate=N/A speed=  17x    frame=24483 fps=409 q=-0.0 size=N/A time=00:17:01.14 bitrate=N/A speed=17.1x    frame=24720 fps=410 q=-0.0 size=N/A time=00:17:11.03 bitrate=N/A speed=17.1x    frame=24955 fps=410 q=-0.0 size=N/A time=00:17:20.83 bitrate=N/A speed=17.1x    frame=25208 fps=411 q=-0.0 size=N/A time=00:17:31.38 bitrate=N/A speed=17.1x    frame=25454 fps=411 q=-0.0 size=N/A time=00:17:41.64 bitrate=N/A speed=17.2x    frame=25735 fps=412 q=-0.0 size=N/A time=00:17:53.36 bitrate=N/A speed=17.2x    frame=26003 fps=413 q=-0.0 size=N/A time=00:18:04.54 bitrate=N/A speed=17.2x    frame=26235 fps=414 q=-0.0 size=N/A time=00:18:14.21 bitrate=N/A speed=17.2x    frame=26499 fps=414 q=-0.0 size=N/A time=00:18:25.22 bitrate=N/A speed=17.3x    frame=26769 fps=415 q=-0.0 size=N/A time=00:18:36.49 bitrate=N/A speed=17.3x    frame=27047 fps=416 q=-0.0 size=N/A time=00:18:48.08 bitrate=N/A speed=17.4x    frame=27307 fps=417 q=-0.0 size=N/A time=00:18:58.92 bitrate=N/A speed=17.4x    frame=27574 fps=418 q=-0.0 size=N/A time=00:19:10.06 bitrate=N/A speed=17.4x    frame=27837 fps=418 q=-0.0 size=N/A time=00:19:21.03 bitrate=N/A speed=17.5x    frame=28137 fps=420 q=-0.0 size=N/A time=00:19:33.54 bitrate=N/A speed=17.5x    frame=28413 fps=420 q=-0.0 size=N/A time=00:19:45.05 bitrate=N/A speed=17.5x    frame=28668 fps=421 q=-0.0 size=N/A time=00:19:55.69 bitrate=N/A speed=17.6x    frame=28907 fps=421 q=-0.0 size=N/A time=00:20:05.66 bitrate=N/A speed=17.6x    frame=29142 fps=422 q=-0.0 size=N/A time=00:20:15.46 bitrate=N/A speed=17.6x    frame=29418 fps=422 q=-0.0 size=N/A time=00:20:26.97 bitrate=N/A speed=17.6x    frame=29676 fps=423 q=-0.0 size=N/A time=00:20:37.73 bitrate=N/A speed=17.6x    frame=29900 fps=423 q=-0.0 size=N/A time=00:20:47.07 bitrate=N/A speed=17.6x    frame=30152 fps=424 q=-0.0 size=N/A time=00:20:57.58 bitrate=N/A speed=17.7x    frame=30334 fps=423 q=-0.0 size=N/A time=00:21:05.18 bitrate=N/A speed=17.6x    frame=30532 fps=423 q=-0.0 size=N/A time=00:21:13.43 bitrate=N/A speed=17.6x    frame=30783 fps=423 q=-0.0 size=N/A time=00:21:23.90 bitrate=N/A speed=17.7x    frame=31043 fps=424 q=-0.0 size=N/A time=00:21:34.75 bitrate=N/A speed=17.7x    frame=31298 fps=424 q=-0.0 size=N/A time=00:21:45.38 bitrate=N/A speed=17.7x    frame=31486 fps=424 q=-0.0 size=N/A time=00:21:53.22 bitrate=N/A speed=17.7x    frame=31707 fps=424 q=-0.0 size=N/A time=00:22:02.44 bitrate=N/A speed=17.7x    frame=31870 fps=423 q=-0.0 size=N/A time=00:22:09.24 bitrate=N/A speed=17.7x    frame=32062 fps=423 q=-0.0 size=N/A time=00:22:17.25 bitrate=N/A speed=17.6x    frame=32270 fps=423 q=-0.0 size=N/A time=00:22:25.92 bitrate=N/A speed=17.6x    frame=32460 fps=422 q=-0.0 size=N/A time=00:22:33.85 bitrate=N/A speed=17.6x    frame=32654 fps=422 q=-0.0 size=N/A time=00:22:41.94 bitrate=N/A speed=17.6x    frame=32846 fps=422 q=-0.0 size=N/A time=00:22:49.95 bitrate=N/A speed=17.6x    frame=33056 fps=422 q=-0.0 size=N/A time=00:22:58.71 bitrate=N/A speed=17.6x    frame=33207 fps=421 q=-0.0 size=N/A time=00:23:05.00 bitrate=N/A speed=17.5x    frame=33432 fps=421 q=-0.0 size=N/A time=00:23:14.39 bitrate=N/A speed=17.6x    frame=33635 fps=421 q=-0.0 size=N/A time=00:23:22.85 bitrate=N/A speed=17.5x    frame=33803 fps=420 q=-0.0 size=N/A time=00:23:29.86 bitrate=N/A speed=17.5x    [Parsed_psnr_10 @ 000001be1dee1d40] PSNR y:46.891178 u:49.822662 v:49.790973 average:47.663886 min:39.261192 max:inf
[out#0/null @ 000001be1e3d9b80] video:14542KiB audio:264700KiB subtitle:0KiB other streams:0KiB global headers:0KiB muxing overhead: unknown
frame=33843 fps=420 q=-0.0 Lsize=N/A time=00:23:31.53 bitrate=N/A speed=17.5x    
